<mxfile host="app.diagrams.net" modified="2024-01-30T02:02:15.652Z" agent="Mozilla/5.0 (Macintosh; Intel Mac OS X 10_15_7) AppleWebKit/537.36 (KHTML, like Gecko) Chrome/120.0.0.0 Safari/537.36" etag="2Nl9WuvnwVAvBeiflQfS" version="22.1.18" type="github">
  <diagram name="第 1 页" id="ddQislcmkxFMrAvWiCpP">
    <mxGraphModel dx="2074" dy="1180" grid="1" gridSize="10" guides="1" tooltips="1" connect="1" arrows="1" fold="1" page="1" pageScale="1" pageWidth="1200" pageHeight="500" math="0" shadow="0">
      <root>
        <mxCell id="0" />
        <mxCell id="1" parent="0" />
        <mxCell id="M43GIn8UgvVr8K3IV7Ii-1" value="Querys" style="shape=cylinder3;whiteSpace=wrap;html=1;boundedLbl=1;backgroundOutline=1;size=15;" vertex="1" parent="1">
          <mxGeometry x="30" y="190" width="70" height="70" as="geometry" />
        </mxCell>
        <mxCell id="M43GIn8UgvVr8K3IV7Ii-2" value="Query聚类" style="rounded=1;whiteSpace=wrap;html=1;" vertex="1" parent="1">
          <mxGeometry x="160" y="207.5" width="90" height="35" as="geometry" />
        </mxCell>
        <mxCell id="M43GIn8UgvVr8K3IV7Ii-8" value="" style="rounded=0;whiteSpace=wrap;html=1;" vertex="1" parent="1">
          <mxGeometry x="1250" y="50" width="280" height="150" as="geometry" />
        </mxCell>
        <mxCell id="M43GIn8UgvVr8K3IV7Ii-9" value="schema 1" style="rounded=1;whiteSpace=wrap;html=1;" vertex="1" parent="1">
          <mxGeometry x="1270" y="80" width="90" height="30" as="geometry" />
        </mxCell>
        <mxCell id="M43GIn8UgvVr8K3IV7Ii-11" value="schema n" style="rounded=1;whiteSpace=wrap;html=1;" vertex="1" parent="1">
          <mxGeometry x="1270" y="155" width="90" height="30" as="geometry" />
        </mxCell>
        <mxCell id="M43GIn8UgvVr8K3IV7Ii-13" value="" style="endArrow=none;dashed=1;html=1;dashPattern=1 3;strokeWidth=4;rounded=0;" edge="1" parent="1">
          <mxGeometry width="50" height="50" relative="1" as="geometry">
            <mxPoint x="1340" y="130" as="sourcePoint" />
            <mxPoint x="1280" y="130" as="targetPoint" />
          </mxGeometry>
        </mxCell>
        <mxCell id="M43GIn8UgvVr8K3IV7Ii-18" value="" style="group" vertex="1" connectable="0" parent="1">
          <mxGeometry x="1410" y="70" width="100" height="40" as="geometry" />
        </mxCell>
        <mxCell id="M43GIn8UgvVr8K3IV7Ii-14" value="S1" style="ellipse;whiteSpace=wrap;html=1;aspect=fixed;" vertex="1" parent="M43GIn8UgvVr8K3IV7Ii-18">
          <mxGeometry y="10" width="30" height="30" as="geometry" />
        </mxCell>
        <mxCell id="M43GIn8UgvVr8K3IV7Ii-15" value="O1" style="ellipse;whiteSpace=wrap;html=1;aspect=fixed;" vertex="1" parent="M43GIn8UgvVr8K3IV7Ii-18">
          <mxGeometry x="70" y="10" width="30" height="30" as="geometry" />
        </mxCell>
        <mxCell id="M43GIn8UgvVr8K3IV7Ii-16" value="" style="edgeStyle=orthogonalEdgeStyle;rounded=0;orthogonalLoop=1;jettySize=auto;html=1;" edge="1" parent="M43GIn8UgvVr8K3IV7Ii-18" source="M43GIn8UgvVr8K3IV7Ii-14" target="M43GIn8UgvVr8K3IV7Ii-15">
          <mxGeometry relative="1" as="geometry" />
        </mxCell>
        <mxCell id="M43GIn8UgvVr8K3IV7Ii-17" value="P1" style="text;html=1;strokeColor=none;fillColor=none;align=center;verticalAlign=middle;whiteSpace=wrap;rounded=0;" vertex="1" parent="M43GIn8UgvVr8K3IV7Ii-18">
          <mxGeometry x="25" width="50" height="30" as="geometry" />
        </mxCell>
        <mxCell id="M43GIn8UgvVr8K3IV7Ii-19" value="Sn" style="ellipse;whiteSpace=wrap;html=1;aspect=fixed;" vertex="1" parent="1">
          <mxGeometry x="1410" y="155" width="30" height="30" as="geometry" />
        </mxCell>
        <mxCell id="M43GIn8UgvVr8K3IV7Ii-20" value="On" style="ellipse;whiteSpace=wrap;html=1;aspect=fixed;" vertex="1" parent="1">
          <mxGeometry x="1480" y="155" width="30" height="30" as="geometry" />
        </mxCell>
        <mxCell id="M43GIn8UgvVr8K3IV7Ii-21" value="" style="edgeStyle=orthogonalEdgeStyle;rounded=0;orthogonalLoop=1;jettySize=auto;html=1;" edge="1" parent="1" source="M43GIn8UgvVr8K3IV7Ii-19" target="M43GIn8UgvVr8K3IV7Ii-20">
          <mxGeometry relative="1" as="geometry" />
        </mxCell>
        <mxCell id="M43GIn8UgvVr8K3IV7Ii-27" value="Pn" style="text;html=1;strokeColor=none;fillColor=none;align=center;verticalAlign=middle;whiteSpace=wrap;rounded=0;" vertex="1" parent="1">
          <mxGeometry x="1430" y="140" width="60" height="30" as="geometry" />
        </mxCell>
        <mxCell id="M43GIn8UgvVr8K3IV7Ii-28" value="" style="endArrow=none;dashed=1;html=1;dashPattern=1 3;strokeWidth=4;rounded=0;" edge="1" parent="1">
          <mxGeometry width="50" height="50" relative="1" as="geometry">
            <mxPoint x="1490" y="130" as="sourcePoint" />
            <mxPoint x="1430" y="130" as="targetPoint" />
          </mxGeometry>
        </mxCell>
        <mxCell id="M43GIn8UgvVr8K3IV7Ii-29" value="概念域1" style="text;html=1;strokeColor=none;fillColor=none;align=center;verticalAlign=middle;whiteSpace=wrap;rounded=0;" vertex="1" parent="1">
          <mxGeometry x="1360" y="50" width="60" height="30" as="geometry" />
        </mxCell>
        <mxCell id="M43GIn8UgvVr8K3IV7Ii-30" value="" style="rounded=0;whiteSpace=wrap;html=1;" vertex="1" parent="1">
          <mxGeometry x="1250" y="300" width="280" height="150" as="geometry" />
        </mxCell>
        <mxCell id="M43GIn8UgvVr8K3IV7Ii-31" value="schema 1" style="rounded=1;whiteSpace=wrap;html=1;" vertex="1" parent="1">
          <mxGeometry x="1270" y="330" width="90" height="30" as="geometry" />
        </mxCell>
        <mxCell id="M43GIn8UgvVr8K3IV7Ii-32" value="schema n" style="rounded=1;whiteSpace=wrap;html=1;" vertex="1" parent="1">
          <mxGeometry x="1270" y="405" width="90" height="30" as="geometry" />
        </mxCell>
        <mxCell id="M43GIn8UgvVr8K3IV7Ii-33" value="" style="endArrow=none;dashed=1;html=1;dashPattern=1 3;strokeWidth=4;rounded=0;" edge="1" parent="1">
          <mxGeometry width="50" height="50" relative="1" as="geometry">
            <mxPoint x="1340" y="380" as="sourcePoint" />
            <mxPoint x="1280" y="380" as="targetPoint" />
          </mxGeometry>
        </mxCell>
        <mxCell id="M43GIn8UgvVr8K3IV7Ii-34" value="" style="group" vertex="1" connectable="0" parent="1">
          <mxGeometry x="1410" y="320" width="100" height="40" as="geometry" />
        </mxCell>
        <mxCell id="M43GIn8UgvVr8K3IV7Ii-35" value="S1" style="ellipse;whiteSpace=wrap;html=1;aspect=fixed;" vertex="1" parent="M43GIn8UgvVr8K3IV7Ii-34">
          <mxGeometry y="10" width="30" height="30" as="geometry" />
        </mxCell>
        <mxCell id="M43GIn8UgvVr8K3IV7Ii-36" value="O1" style="ellipse;whiteSpace=wrap;html=1;aspect=fixed;" vertex="1" parent="M43GIn8UgvVr8K3IV7Ii-34">
          <mxGeometry x="70" y="10" width="30" height="30" as="geometry" />
        </mxCell>
        <mxCell id="M43GIn8UgvVr8K3IV7Ii-37" value="" style="edgeStyle=orthogonalEdgeStyle;rounded=0;orthogonalLoop=1;jettySize=auto;html=1;" edge="1" parent="M43GIn8UgvVr8K3IV7Ii-34" source="M43GIn8UgvVr8K3IV7Ii-35" target="M43GIn8UgvVr8K3IV7Ii-36">
          <mxGeometry relative="1" as="geometry" />
        </mxCell>
        <mxCell id="M43GIn8UgvVr8K3IV7Ii-38" value="P1" style="text;html=1;strokeColor=none;fillColor=none;align=center;verticalAlign=middle;whiteSpace=wrap;rounded=0;" vertex="1" parent="M43GIn8UgvVr8K3IV7Ii-34">
          <mxGeometry x="25" width="50" height="30" as="geometry" />
        </mxCell>
        <mxCell id="M43GIn8UgvVr8K3IV7Ii-39" value="Sn" style="ellipse;whiteSpace=wrap;html=1;aspect=fixed;" vertex="1" parent="1">
          <mxGeometry x="1410" y="405" width="30" height="30" as="geometry" />
        </mxCell>
        <mxCell id="M43GIn8UgvVr8K3IV7Ii-40" value="On" style="ellipse;whiteSpace=wrap;html=1;aspect=fixed;" vertex="1" parent="1">
          <mxGeometry x="1480" y="405" width="30" height="30" as="geometry" />
        </mxCell>
        <mxCell id="M43GIn8UgvVr8K3IV7Ii-41" value="" style="edgeStyle=orthogonalEdgeStyle;rounded=0;orthogonalLoop=1;jettySize=auto;html=1;" edge="1" parent="1" source="M43GIn8UgvVr8K3IV7Ii-39" target="M43GIn8UgvVr8K3IV7Ii-40">
          <mxGeometry relative="1" as="geometry" />
        </mxCell>
        <mxCell id="M43GIn8UgvVr8K3IV7Ii-42" value="Pn" style="text;html=1;strokeColor=none;fillColor=none;align=center;verticalAlign=middle;whiteSpace=wrap;rounded=0;" vertex="1" parent="1">
          <mxGeometry x="1430" y="390" width="60" height="30" as="geometry" />
        </mxCell>
        <mxCell id="M43GIn8UgvVr8K3IV7Ii-43" value="" style="endArrow=none;dashed=1;html=1;dashPattern=1 3;strokeWidth=4;rounded=0;" edge="1" parent="1">
          <mxGeometry width="50" height="50" relative="1" as="geometry">
            <mxPoint x="1490" y="380" as="sourcePoint" />
            <mxPoint x="1430" y="380" as="targetPoint" />
          </mxGeometry>
        </mxCell>
        <mxCell id="M43GIn8UgvVr8K3IV7Ii-44" value="概念域 n" style="text;html=1;strokeColor=none;fillColor=none;align=center;verticalAlign=middle;whiteSpace=wrap;rounded=0;" vertex="1" parent="1">
          <mxGeometry x="1360" y="300" width="60" height="30" as="geometry" />
        </mxCell>
      </root>
    </mxGraphModel>
  </diagram>
</mxfile>
